<?xml version="1.0" encoding="UTF-8"?>
<!--Generator: Apple Native CoreSVG 326-->
<!DOCTYPE svg
PUBLIC "-//W3C//DTD SVG 1.1//EN"
       "http://www.w3.org/Graphics/SVG/1.1/DTD/svg11.dtd">
<svg version="1.1" xmlns="http://www.w3.org/2000/svg" xmlns:xlink="http://www.w3.org/1999/xlink" viewBox="0 0 19.8458 19.6488">
 <g>
  <rect height="19.6488" opacity="0" width="19.8458" x="0" y="0"/>
  <path d="M1.13383 14.5754L4.91313 18.3449C6.38773 19.8098 8.03813 19.8683 9.42484 18.4816L18.8389 9.0578C19.708 8.19843 19.6983 6.95819 18.8096 6.06952L13.4092 0.678894C12.5205-0.209778 11.2901-0.229309 10.4209 0.639832L1.00688 10.0539C-0.379844 11.4504-0.331015 13.1008 1.13383 14.5754ZM2.24711 13.4621C1.49516 12.7004 1.45609 11.8312 2.16898 11.1086L11.4659 1.81171C11.7198 1.5578 12.0713 1.5578 12.3155 1.80194L17.6866 7.17303C17.9307 7.41718 17.9209 7.75897 17.6768 8.00311L8.37016 17.3098C7.65727 18.0324 6.78813 17.9933 6.02641 17.2316ZM2.55961 9.57538L9.90336 16.9289L10.8799 15.9523L3.5557 8.62811Z" fill="#007aff"/>
 </g>
</svg>
